ffmpeg started on 2026-01-20 at 14:04:40
Report written to "D:\Convert\FFMetrics\reports\ssim_report-6.txt"
Log level: 32
Command line:
ffmpeg -hide_banner -nostdin -r 24000/1001 -i "F:\\Convert\\files\\[DC] Make Heroine ga Oosugiru - 07_Telegram_HEVC(204).mkv" -r 24000/1001 -i "F:\\Convert\\files\\[DC] Make Heroine ga Oosugiru - 07_Telegram.mp4" -lavfi "[0:v]settb=AVTB,setpts=PTS-STARTPTS,format=pix_fmts=yuv420p10le,fps=24000/1001,scale=1920:1080:flags=lanczos:param0=3:out_range=limited:out_color_matrix=bt709:out_chroma_loc=left,setsar=1/1,setdar=(1920/1080)*(1/1),colorspace=format=yuv420p10:range=tv:primaries=bt709:trc=bt709:space=bt709:fast=0[main];[1:v]settb=AVTB,setpts=PTS-STARTPTS,format=pix_fmts=yuv420p,fps=24000/1001,scale=1920:1080:flags=lanczos:param0=3:out_range=limited:out_color_matrix=bt709:out_chroma_loc=left,setsar=1.000,setdar=1.778,colorspace=format=yuv420p:range=tv:primaries=bt709:trc=bt709:space=bt709:fast=0[ref];[main][ref]ssim=eof_action=endall:stats_file='D\\:/Convert/FFMetrics/logs/ssim_logfile-6.txt'" -f null -
Input #0, matroska,webm, from 'F:\Convert\files\[DC] Make Heroine ga Oosugiru - 07_Telegram_HEVC(204).mkv':
  Metadata:
    COMPATIBLE_BRANDS: isomiso2avc1mp41
    MAJOR_BRAND     : isom
    MINOR_VERSION   : 512
    ENCODER         : Lavf61.7.100
  Duration: 00:24:06.79, start: -0.021000, bitrate: 964 kb/s
  Stream #0:0: Video: hevc (Main 10), yuv420p10le(tv, bt709, progressive), 1920x1080 [SAR 1:1 DAR 16:9], 23.98 fps, 23.98 tbr, 1k tbn (default)
      Metadata:
        HANDLER_NAME    : VideoHandler
        VENDOR_ID       : [0][0][0][0]
        ENCODER         : Lavc61.19.100 libx265
        BPS             : 766918
        DURATION        : 00:24:06.569708333
        NUMBER_OF_FRAMES: 34683
        NUMBER_OF_BYTES : 138675051
        _STATISTICS_WRITING_APP: mkvpropedit v94.0 ('Initiate') 64-bit
        _STATISTICS_WRITING_DATE_UTC: 2026-01-20 07:45:03
        _STATISTICS_TAGS: BPS DURATION NUMBER_OF_FRAMES NUMBER_OF_BYTES
  Stream #0:1: Audio: aac (LC), 48000 Hz, stereo, fltp (default)
      Metadata:
        HANDLER_NAME    : SoundHandler
        VENDOR_ID       : [0][0][0][0]
        ENCODER         : Lavc61.19.100 aac
        BPS             : 193194
        DURATION        : 00:24:06.784000000
        NUMBER_OF_FRAMES: 67819
        NUMBER_OF_BYTES : 34938755
        _STATISTICS_WRITING_APP: mkvpropedit v94.0 ('Initiate') 64-bit
        _STATISTICS_WRITING_DATE_UTC: 2026-01-20 07:45:03
        _STATISTICS_TAGS: BPS DURATION NUMBER_OF_FRAMES NUMBER_OF_BYTES
Input #1, mov,mp4,m4a,3gp,3g2,mj2, from 'F:\Convert\files\[DC] Make Heroine ga Oosugiru - 07_Telegram.mp4':
  Metadata:
    major_brand     : isom
    minor_version   : 512
    compatible_brands: isomiso2avc1mp41
    encoder         : Lavf60.16.100
  Duration: 00:24:06.74, start: 0.000000, bitrate: 3764 kb/s
  Stream #1:0[0x1](und): Video: h264 (High) (avc1 / 0x31637661), yuv420p(tv, bt709, progressive), 1920x1080 [SAR 1:1 DAR 16:9], 3616 kb/s, 23.98 fps, 23.98 tbr, 24k tbn (default)
      Metadata:
        handler_name    : VideoHandler
        vendor_id       : [0][0][0][0]
        encoder         : Lavc60.31.102 h264_qsv
  Stream #1:1[0x2](und): Audio: aac (HE-AACv2) (mp4a / 0x6134706D), 48000 Hz, stereo, fltp, 144 kb/s (default)
      Metadata:
        handler_name    : SoundHandler
        vendor_id       : [0][0][0][0]
Stream mapping:
  Stream #0:0 (hevc) -> settb:default
  Stream #1:0 (h264) -> settb:default
  ssim:default -> Stream #0:0 (wrapped_avframe)
  Stream #0:1 -> #0:1 (aac (native) -> pcm_s16le (native))
Output #0, null, to 'pipe:':
  Metadata:
    COMPATIBLE_BRANDS: isomiso2avc1mp41
    MAJOR_BRAND     : isom
    MINOR_VERSION   : 512
    encoder         : Lavf61.7.100
  Stream #0:0: Video: wrapped_avframe, yuv420p10le(tv, bt709, progressive), 1920x1080 [SAR 1:1 DAR 16:9], q=2-31, 200 kb/s, 23.98 fps, 23.98 tbn
      Metadata:
        encoder         : Lavc61.19.100 wrapped_avframe
  Stream #0:1: Audio: pcm_s16le, 48000 Hz, stereo, s16, 1536 kb/s (default)
      Metadata:
        HANDLER_NAME    : SoundHandler
        VENDOR_ID       : [0][0][0][0]
        _STATISTICS_TAGS: BPS DURATION NUMBER_OF_FRAMES NUMBER_OF_BYTES
        BPS             : 193194
        DURATION        : 00:24:06.784000000
        NUMBER_OF_FRAMES: 67819
        NUMBER_OF_BYTES : 34938755
        _STATISTICS_WRITING_APP: mkvpropedit v94.0 ('Initiate') 64-bit
        _STATISTICS_WRITING_DATE_UTC: 2026-01-20 07:45:03
        encoder         : Lavc61.19.100 pcm_s16le
frame=  137 fps=0.0 q=-0.0 size=N/A time=00:00:05.71 bitrate=N/A speed=  11x    frame=  313 fps=303 q=-0.0 size=N/A time=00:00:13.05 bitrate=N/A speed=12.6x    frame=  495 fps=320 q=-0.0 size=N/A time=00:00:20.64 bitrate=N/A speed=13.4x    frame=  678 fps=330 q=-0.0 size=N/A time=00:00:28.27 bitrate=N/A speed=13.8x    frame=  875 fps=339 q=-0.0 size=N/A time=00:00:36.49 bitrate=N/A speed=14.1x    frame= 1000 fps=323 q=-0.0 size=N/A time=00:00:41.70 bitrate=N/A speed=13.5x    frame= 1167 fps=324 q=-0.0 size=N/A time=00:00:48.67 bitrate=N/A speed=13.5x    frame= 1323 fps=320 q=-0.0 size=N/A time=00:00:55.18 bitrate=N/A speed=13.4x    frame= 1486 fps=320 q=-0.0 size=N/A time=00:01:01.97 bitrate=N/A speed=13.3x    frame= 1622 fps=315 q=-0.0 size=N/A time=00:01:07.65 bitrate=N/A speed=13.1x    frame= 1781 fps=315 q=-0.0 size=N/A time=00:01:14.28 bitrate=N/A speed=13.1x    frame= 1948 fps=315 q=-0.0 size=N/A time=00:01:21.24 bitrate=N/A speed=13.1x    frame= 2075 fps=310 q=-0.0 size=N/A time=00:01:26.54 bitrate=N/A speed=12.9x    frame= 2212 fps=307 q=-0.0 size=N/A time=00:01:32.25 bitrate=N/A speed=12.8x    frame= 2362 fps=305 q=-0.0 size=N/A time=00:01:38.51 bitrate=N/A speed=12.7x    frame= 2486 fps=301 q=-0.0 size=N/A time=00:01:43.68 bitrate=N/A speed=12.6x    frame= 2639 fps=301 q=-0.0 size=N/A time=00:01:50.06 bitrate=N/A speed=12.6x    frame= 2822 fps=304 q=-0.0 size=N/A time=00:01:57.70 bitrate=N/A speed=12.7x    frame= 3000 fps=306 q=-0.0 size=N/A time=00:02:05.12 bitrate=N/A speed=12.7x    frame= 3185 fps=308 q=-0.0 size=N/A time=00:02:12.84 bitrate=N/A speed=12.9x    frame= 3369 fps=311 q=-0.0 size=N/A time=00:02:20.51 bitrate=N/A speed=  13x    frame= 3559 fps=313 q=-0.0 size=N/A time=00:02:28.43 bitrate=N/A speed=13.1x    frame= 3742 fps=315 q=-0.0 size=N/A time=00:02:36.07 bitrate=N/A speed=13.1x    frame= 3931 fps=317 q=-0.0 size=N/A time=00:02:43.95 bitrate=N/A speed=13.2x    frame= 4116 fps=319 q=-0.0 size=N/A time=00:02:51.67 bitrate=N/A speed=13.3x    frame= 4309 fps=321 q=-0.0 size=N/A time=00:02:59.72 bitrate=N/A speed=13.4x    frame= 4495 fps=322 q=-0.0 size=N/A time=00:03:07.47 bitrate=N/A speed=13.4x    frame= 4680 fps=324 q=-0.0 size=N/A time=00:03:15.19 bitrate=N/A speed=13.5x    frame= 4869 fps=325 q=-0.0 size=N/A time=00:03:23.07 bitrate=N/A speed=13.6x    frame= 5058 fps=327 q=-0.0 size=N/A time=00:03:30.96 bitrate=N/A speed=13.6x    frame= 5233 fps=327 q=-0.0 size=N/A time=00:03:38.25 bitrate=N/A speed=13.6x    frame= 5415 fps=328 q=-0.0 size=N/A time=00:03:45.85 bitrate=N/A speed=13.7x    frame= 5593 fps=329 q=-0.0 size=N/A time=00:03:53.27 bitrate=N/A speed=13.7x    frame= 5784 fps=330 q=-0.0 size=N/A time=00:04:01.24 bitrate=N/A speed=13.7x    frame= 5971 fps=331 q=-0.0 size=N/A time=00:04:09.04 bitrate=N/A speed=13.8x    frame= 6152 fps=331 q=-0.0 size=N/A time=00:04:16.58 bitrate=N/A speed=13.8x    frame= 6342 fps=332 q=-0.0 size=N/A time=00:04:24.51 bitrate=N/A speed=13.9x    frame= 6530 fps=333 q=-0.0 size=N/A time=00:04:32.35 bitrate=N/A speed=13.9x    frame= 6714 fps=334 q=-0.0 size=N/A time=00:04:40.02 bitrate=N/A speed=13.9x    frame= 6898 fps=334 q=-0.0 size=N/A time=00:04:47.70 bitrate=N/A speed=13.9x    frame= 7083 fps=335 q=-0.0 size=N/A time=00:04:55.42 bitrate=N/A speed=  14x    frame= 7264 fps=335 q=-0.0 size=N/A time=00:05:02.96 bitrate=N/A speed=  14x    frame= 7442 fps=336 q=-0.0 size=N/A time=00:05:10.39 bitrate=N/A speed=  14x    frame= 7626 fps=336 q=-0.0 size=N/A time=00:05:18.06 bitrate=N/A speed=  14x    frame= 7808 fps=336 q=-0.0 size=N/A time=00:05:25.65 bitrate=N/A speed=  14x    frame= 7988 fps=337 q=-0.0 size=N/A time=00:05:33.16 bitrate=N/A speed=  14x    frame= 8168 fps=337 q=-0.0 size=N/A time=00:05:40.67 bitrate=N/A speed=14.1x    frame= 8360 fps=338 q=-0.0 size=N/A time=00:05:48.68 bitrate=N/A speed=14.1x    frame= 8542 fps=338 q=-0.0 size=N/A time=00:05:56.27 bitrate=N/A speed=14.1x    frame= 8722 fps=338 q=-0.0 size=N/A time=00:06:03.78 bitrate=N/A speed=14.1x    frame= 8904 fps=339 q=-0.0 size=N/A time=00:06:11.37 bitrate=N/A speed=14.1x    frame= 9092 fps=339 q=-0.0 size=N/A time=00:06:19.21 bitrate=N/A speed=14.1x    frame= 9274 fps=339 q=-0.0 size=N/A time=00:06:26.80 bitrate=N/A speed=14.1x    frame= 9458 fps=340 q=-0.0 size=N/A time=00:06:34.47 bitrate=N/A speed=14.2x    frame= 9651 fps=340 q=-0.0 size=N/A time=00:06:42.52 bitrate=N/A speed=14.2x    frame= 9833 fps=340 q=-0.0 size=N/A time=00:06:50.11 bitrate=N/A speed=14.2x    frame=10014 fps=341 q=-0.0 size=N/A time=00:06:57.66 bitrate=N/A speed=14.2x    frame=10199 fps=341 q=-0.0 size=N/A time=00:07:05.38 bitrate=N/A speed=14.2x    frame=10379 fps=341 q=-0.0 size=N/A time=00:07:12.89 bitrate=N/A speed=14.2x    frame=10567 fps=341 q=-0.0 size=N/A time=00:07:20.73 bitrate=N/A speed=14.2x    frame=10749 fps=342 q=-0.0 size=N/A time=00:07:28.32 bitrate=N/A speed=14.2x    frame=10929 fps=342 q=-0.0 size=N/A time=00:07:35.83 bitrate=N/A speed=14.3x    frame=11122 fps=342 q=-0.0 size=N/A time=00:07:43.88 bitrate=N/A speed=14.3x    frame=11295 fps=342 q=-0.0 size=N/A time=00:07:51.09 bitrate=N/A speed=14.3x    frame=11480 fps=342 q=-0.0 size=N/A time=00:07:58.81 bitrate=N/A speed=14.3x    frame=11661 fps=343 q=-0.0 size=N/A time=00:08:06.36 bitrate=N/A speed=14.3x    frame=11841 fps=343 q=-0.0 size=N/A time=00:08:13.86 bitrate=N/A speed=14.3x    frame=12026 fps=343 q=-0.0 size=N/A time=00:08:21.58 bitrate=N/A speed=14.3x    frame=12202 fps=343 q=-0.0 size=N/A time=00:08:28.92 bitrate=N/A speed=14.3x    frame=12377 fps=343 q=-0.0 size=N/A time=00:08:36.22 bitrate=N/A speed=14.3x    frame=12574 fps=343 q=-0.0 size=N/A time=00:08:44.44 bitrate=N/A speed=14.3x    frame=12750 fps=343 q=-0.0 size=N/A time=00:08:51.78 bitrate=N/A speed=14.3x    frame=12931 fps=343 q=-0.0 size=N/A time=00:08:59.33 bitrate=N/A speed=14.3x    frame=13112 fps=343 q=-0.0 size=N/A time=00:09:06.87 bitrate=N/A speed=14.3x    frame=13294 fps=344 q=-0.0 size=N/A time=00:09:14.47 bitrate=N/A speed=14.3x    frame=13468 fps=343 q=-0.0 size=N/A time=00:09:21.72 bitrate=N/A speed=14.3x    frame=13651 fps=344 q=-0.0 size=N/A time=00:09:29.36 bitrate=N/A speed=14.3x    frame=13839 fps=344 q=-0.0 size=N/A time=00:09:37.20 bitrate=N/A speed=14.3x    frame=14015 fps=344 q=-0.0 size=N/A time=00:09:44.54 bitrate=N/A speed=14.3x    frame=14194 fps=344 q=-0.0 size=N/A time=00:09:52.00 bitrate=N/A speed=14.3x    frame=14373 fps=344 q=-0.0 size=N/A time=00:09:59.47 bitrate=N/A speed=14.3x    frame=14561 fps=344 q=-0.0 size=N/A time=00:10:07.31 bitrate=N/A speed=14.4x    frame=14743 fps=344 q=-0.0 size=N/A time=00:10:14.90 bitrate=N/A speed=14.4x    frame=14924 fps=344 q=-0.0 size=N/A time=00:10:22.45 bitrate=N/A speed=14.4x    frame=15102 fps=344 q=-0.0 size=N/A time=00:10:29.87 bitrate=N/A speed=14.4x    frame=15266 fps=344 q=-0.0 size=N/A time=00:10:36.71 bitrate=N/A speed=14.3x    frame=15453 fps=344 q=-0.0 size=N/A time=00:10:44.51 bitrate=N/A speed=14.4x    frame=15640 fps=344 q=-0.0 size=N/A time=00:10:52.31 bitrate=N/A speed=14.4x    frame=15820 fps=344 q=-0.0 size=N/A time=00:10:59.82 bitrate=N/A speed=14.4x    frame=16010 fps=345 q=-0.0 size=N/A time=00:11:07.75 bitrate=N/A speed=14.4x    frame=16197 fps=345 q=-0.0 size=N/A time=00:11:15.54 bitrate=N/A speed=14.4x    frame=16386 fps=345 q=-0.0 size=N/A time=00:11:23.43 bitrate=N/A speed=14.4x    frame=16563 fps=345 q=-0.0 size=N/A time=00:11:30.81 bitrate=N/A speed=14.4x    frame=16751 fps=345 q=-0.0 size=N/A time=00:11:38.65 bitrate=N/A speed=14.4x    frame=16935 fps=346 q=-0.0 size=N/A time=00:11:46.33 bitrate=N/A speed=14.4x    frame=17129 fps=346 q=-0.0 size=N/A time=00:11:54.42 bitrate=N/A speed=14.4x    frame=17313 fps=346 q=-0.0 size=N/A time=00:12:02.09 bitrate=N/A speed=14.4x    frame=17496 fps=346 q=-0.0 size=N/A time=00:12:09.72 bitrate=N/A speed=14.4x    frame=17675 fps=346 q=-0.0 size=N/A time=00:12:17.19 bitrate=N/A speed=14.4x    frame=17866 fps=346 q=-0.0 size=N/A time=00:12:25.16 bitrate=N/A speed=14.4x    frame=18050 fps=346 q=-0.0 size=N/A time=00:12:32.83 bitrate=N/A speed=14.4x    frame=18226 fps=346 q=-0.0 size=N/A time=00:12:40.17 bitrate=N/A speed=14.4x    frame=18399 fps=346 q=-0.0 size=N/A time=00:12:47.39 bitrate=N/A speed=14.4x    frame=18592 fps=346 q=-0.0 size=N/A time=00:12:55.44 bitrate=N/A speed=14.5x    frame=18778 fps=347 q=-0.0 size=N/A time=00:13:03.19 bitrate=N/A speed=14.5x    frame=18962 fps=347 q=-0.0 size=N/A time=00:13:10.87 bitrate=N/A speed=14.5x    frame=19149 fps=347 q=-0.0 size=N/A time=00:13:18.67 bitrate=N/A speed=14.5x    frame=19341 fps=347 q=-0.0 size=N/A time=00:13:26.68 bitrate=N/A speed=14.5x    frame=19526 fps=347 q=-0.0 size=N/A time=00:13:34.39 bitrate=N/A speed=14.5x    frame=19706 fps=347 q=-0.0 size=N/A time=00:13:41.90 bitrate=N/A speed=14.5x    frame=19893 fps=347 q=-0.0 size=N/A time=00:13:49.70 bitrate=N/A speed=14.5x    frame=20069 fps=347 q=-0.0 size=N/A time=00:13:57.04 bitrate=N/A speed=14.5x    frame=20250 fps=347 q=-0.0 size=N/A time=00:14:04.59 bitrate=N/A speed=14.5x    frame=20427 fps=347 q=-0.0 size=N/A time=00:14:11.97 bitrate=N/A speed=14.5x    frame=20593 fps=347 q=-0.0 size=N/A time=00:14:18.89 bitrate=N/A speed=14.5x    frame=20776 fps=347 q=-0.0 size=N/A time=00:14:26.53 bitrate=N/A speed=14.5x    frame=20955 fps=347 q=-0.0 size=N/A time=00:14:33.99 bitrate=N/A speed=14.5x    frame=21126 fps=347 q=-0.0 size=N/A time=00:14:41.13 bitrate=N/A speed=14.5x    frame=21300 fps=347 q=-0.0 size=N/A time=00:14:48.38 bitrate=N/A speed=14.5x    frame=21472 fps=347 q=-0.0 size=N/A time=00:14:55.56 bitrate=N/A speed=14.5x    frame=21662 fps=347 q=-0.0 size=N/A time=00:15:03.48 bitrate=N/A speed=14.5x    frame=21842 fps=347 q=-0.0 size=N/A time=00:15:10.99 bitrate=N/A speed=14.5x    frame=22028 fps=347 q=-0.0 size=N/A time=00:15:18.75 bitrate=N/A speed=14.5x    frame=22212 fps=347 q=-0.0 size=N/A time=00:15:26.42 bitrate=N/A speed=14.5x    frame=22401 fps=347 q=-0.0 size=N/A time=00:15:34.30 bitrate=N/A speed=14.5x    frame=22576 fps=347 q=-0.0 size=N/A time=00:15:41.60 bitrate=N/A speed=14.5x    frame=22753 fps=347 q=-0.0 size=N/A time=00:15:48.98 bitrate=N/A speed=14.5x    frame=22940 fps=347 q=-0.0 size=N/A time=00:15:56.78 bitrate=N/A speed=14.5x    frame=23118 fps=347 q=-0.0 size=N/A time=00:16:04.21 bitrate=N/A speed=14.5x    frame=23289 fps=347 q=-0.0 size=N/A time=00:16:11.34 bitrate=N/A speed=14.5x    frame=23469 fps=347 q=-0.0 size=N/A time=00:16:18.85 bitrate=N/A speed=14.5x    frame=23653 fps=347 q=-0.0 size=N/A time=00:16:26.52 bitrate=N/A speed=14.5x    frame=23824 fps=347 q=-0.0 size=N/A time=00:16:33.65 bitrate=N/A speed=14.5x    frame=24011 fps=347 q=-0.0 size=N/A time=00:16:41.45 bitrate=N/A speed=14.5x    frame=24188 fps=347 q=-0.0 size=N/A time=00:16:48.84 bitrate=N/A speed=14.5x    frame=24364 fps=347 q=-0.0 size=N/A time=00:16:56.18 bitrate=N/A speed=14.5x    frame=24551 fps=347 q=-0.0 size=N/A time=00:17:03.98 bitrate=N/A speed=14.5x    frame=24730 fps=347 q=-0.0 size=N/A time=00:17:11.44 bitrate=N/A speed=14.5x    frame=24918 fps=348 q=-0.0 size=N/A time=00:17:19.28 bitrate=N/A speed=14.5x    frame=25097 fps=348 q=-0.0 size=N/A time=00:17:26.75 bitrate=N/A speed=14.5x    frame=25284 fps=348 q=-0.0 size=N/A time=00:17:34.55 bitrate=N/A speed=14.5x    frame=25468 fps=348 q=-0.0 size=N/A time=00:17:42.22 bitrate=N/A speed=14.5x    frame=25651 fps=348 q=-0.0 size=N/A time=00:17:49.86 bitrate=N/A speed=14.5x    frame=25840 fps=348 q=-0.0 size=N/A time=00:17:57.74 bitrate=N/A speed=14.5x    frame=26028 fps=348 q=-0.0 size=N/A time=00:18:05.58 bitrate=N/A speed=14.5x    frame=26212 fps=348 q=-0.0 size=N/A time=00:18:13.25 bitrate=N/A speed=14.5x    frame=26392 fps=348 q=-0.0 size=N/A time=00:18:20.76 bitrate=N/A speed=14.5x    frame=26549 fps=348 q=-0.0 size=N/A time=00:18:27.31 bitrate=N/A speed=14.5x    frame=26726 fps=348 q=-0.0 size=N/A time=00:18:34.69 bitrate=N/A speed=14.5x    frame=26909 fps=348 q=-0.0 size=N/A time=00:18:42.32 bitrate=N/A speed=14.5x    frame=27075 fps=348 q=-0.0 size=N/A time=00:18:49.25 bitrate=N/A speed=14.5x    frame=27261 fps=348 q=-0.0 size=N/A time=00:18:57.01 bitrate=N/A speed=14.5x    frame=27436 fps=348 q=-0.0 size=N/A time=00:19:04.30 bitrate=N/A speed=14.5x    frame=27618 fps=348 q=-0.0 size=N/A time=00:19:11.90 bitrate=N/A speed=14.5x    frame=27810 fps=348 q=-0.0 size=N/A time=00:19:19.90 bitrate=N/A speed=14.5x    frame=27993 fps=348 q=-0.0 size=N/A time=00:19:27.54 bitrate=N/A speed=14.5x    frame=28173 fps=348 q=-0.0 size=N/A time=00:19:35.04 bitrate=N/A speed=14.5x    frame=28364 fps=348 q=-0.0 size=N/A time=00:19:43.01 bitrate=N/A speed=14.5x    frame=28545 fps=348 q=-0.0 size=N/A time=00:19:50.56 bitrate=N/A speed=14.5x    frame=28721 fps=348 q=-0.0 size=N/A time=00:19:57.90 bitrate=N/A speed=14.5x    frame=28903 fps=348 q=-0.0 size=N/A time=00:20:05.49 bitrate=N/A speed=14.5x    frame=29069 fps=348 q=-0.0 size=N/A time=00:20:12.41 bitrate=N/A speed=14.5x    frame=29247 fps=348 q=-0.0 size=N/A time=00:20:19.84 bitrate=N/A speed=14.5x    frame=29423 fps=348 q=-0.0 size=N/A time=00:20:27.18 bitrate=N/A speed=14.5x    frame=29597 fps=348 q=-0.0 size=N/A time=00:20:34.44 bitrate=N/A speed=14.5x    frame=29775 fps=348 q=-0.0 size=N/A time=00:20:41.86 bitrate=N/A speed=14.5x    frame=29945 fps=348 q=-0.0 size=N/A time=00:20:48.95 bitrate=N/A speed=14.5x    frame=30119 fps=347 q=-0.0 size=N/A time=00:20:56.21 bitrate=N/A speed=14.5x    frame=30304 fps=347 q=-0.0 size=N/A time=00:21:03.92 bitrate=N/A speed=14.5x    frame=30492 fps=348 q=-0.0 size=N/A time=00:21:11.77 bitrate=N/A speed=14.5x    frame=30671 fps=348 q=-0.0 size=N/A time=00:21:19.23 bitrate=N/A speed=14.5x    frame=30858 fps=348 q=-0.0 size=N/A time=00:21:27.03 bitrate=N/A speed=14.5x    frame=31042 fps=348 q=-0.0 size=N/A time=00:21:34.71 bitrate=N/A speed=14.5x    frame=31227 fps=348 q=-0.0 size=N/A time=00:21:42.42 bitrate=N/A speed=14.5x    frame=31404 fps=348 q=-0.0 size=N/A time=00:21:49.80 bitrate=N/A speed=14.5x    frame=31582 fps=348 q=-0.0 size=N/A time=00:21:57.23 bitrate=N/A speed=14.5x    frame=31768 fps=348 q=-0.0 size=N/A time=00:22:04.99 bitrate=N/A speed=14.5x    frame=31937 fps=348 q=-0.0 size=N/A time=00:22:12.03 bitrate=N/A speed=14.5x    frame=32114 fps=348 q=-0.0 size=N/A time=00:22:19.42 bitrate=N/A speed=14.5x    frame=32299 fps=348 q=-0.0 size=N/A time=00:22:27.13 bitrate=N/A speed=14.5x    frame=32482 fps=348 q=-0.0 size=N/A time=00:22:34.77 bitrate=N/A speed=14.5x    frame=32652 fps=348 q=-0.0 size=N/A time=00:22:41.86 bitrate=N/A speed=14.5x    frame=32800 fps=347 q=-0.0 size=N/A time=00:22:48.03 bitrate=N/A speed=14.5x    frame=32968 fps=347 q=-0.0 size=N/A time=00:22:55.04 bitrate=N/A speed=14.5x    frame=33147 fps=347 q=-0.0 size=N/A time=00:23:02.50 bitrate=N/A speed=14.5x    frame=33321 fps=347 q=-0.0 size=N/A time=00:23:09.76 bitrate=N/A speed=14.5x    frame=33486 fps=347 q=-0.0 size=N/A time=00:23:16.64 bitrate=N/A speed=14.5x    frame=33642 fps=347 q=-0.0 size=N/A time=00:23:23.15 bitrate=N/A speed=14.5x    frame=33777 fps=346 q=-0.0 size=N/A time=00:23:28.78 bitrate=N/A speed=14.4x    frame=33902 fps=346 q=-0.0 size=N/A time=00:23:33.99 bitrate=N/A speed=14.4x    frame=34061 fps=346 q=-0.0 size=N/A time=00:23:40.62 bitrate=N/A speed=14.4x    frame=34228 fps=346 q=-0.0 size=N/A time=00:23:47.59 bitrate=N/A speed=14.4x    frame=34363 fps=345 q=-0.0 size=N/A time=00:23:53.22 bitrate=N/A speed=14.4x    frame=34500 fps=345 q=-0.0 size=N/A time=00:23:58.93 bitrate=N/A speed=14.4x    [Parsed_ssim_16 @ 00000266509feb00] SSIM Y:0.994233 (22.390464) U:0.994027 (22.238430) V:0.993632 (21.960275) All:0.994099 (22.290467)
[out#0/null @ 000002664350fe80] video:14903KiB audio:271276KiB subtitle:0KiB other streams:0KiB global headers:0KiB muxing overhead: unknown
frame=34683 fps=345 q=-0.0 Lsize=N/A time=00:24:06.57 bitrate=N/A speed=14.4x    
